<svg class="icon" style="width: 1em;height: 1em;vertical-align: middle;fill: currentColor;overflow: hidden;" viewBox="0 0 1024 1024" version="1.1" xmlns="http://www.w3.org/2000/svg" p-id="508"><path d="M512 0c216.152 0 392 175.848 392 392v542c0 49.624-40.584 90-90.464 90H210.464C160.584 1024 120 983.624 120 934V392C120 175.848 295.848 0 512 0z m191.064 199.408c149.664 148.904 78.48 403.128-117.8 454.944-96.064 25.368-194.896-0.68-264.328-69.76-149.656-148.896-78.496-403.12 117.8-454.952 96.104-25.36 194.92 0.72 264.328 69.768zM632.616 362c16.656 0 30.16 13.432 30.16 30 0 16.568-13.504 30-30.16 30H512c-16.656 0-30.16-13.432-30.16-30V270c0-16.568 13.504-30 30.16-30s30.16 13.432 30.16 30v92h90.456z m-62.816 234.36c153.28-40.464 206.248-239.48 90.624-354.52-55.008-54.728-132.48-73.664-206.224-54.208-153.28 40.48-206.24 239.496-90.624 354.528 54.776 54.496 132.16 73.752 206.216 54.2z m273.896 337.64V392c0-183.064-148.8-332-331.696-332C329.104 60 180.304 208.936 180.304 392v542c0 16.544 13.528 30 30.16 30h603.072c16.632 0 30.16-13.456 30.16-30zM753.232 724c16.648 0 30.16 13.432 30.16 30v120c0 16.568-13.512 30-30.16 30H270.768c-16.648 0-30.16-13.432-30.16-30v-120c0-16.568 13.512-30 30.16-30h482.464z m-30.16 120V784H300.928v60h422.16z" fill="#20A0FF" p-id="509"></path></svg>